<!-- Generated by IcoMoon.io -->
<svg version="1.1" xmlns="http://www.w3.org/2000/svg" width="512" height="512" viewBox="0 0 512 512">
<title></title>
<g id="icomoon-ignore">
</g>
<path d="M462.8 442.6c-56.1 41.4-137.3 63.4-207.3 63.4-98.1 0-186.4-36.2-253.2-96.6-5.2-4.7-0.6-11.2 5.7-7.5 72.1 42 161.3 67.2 253.4 67.2 62.1 0 130.4-12.9 193.3-39.6 9.4-4 17.4 6.3 8.1 13.1z"></path>
<path d="M486.1 416c-7.2-9.2-47.4-4.4-65.5-2.2-5.5 0.6-6.3-4.1-1.4-7.6 32.1-22.5 84.7-16 90.8-8.5 6.2 7.6-1.6 60.3-31.7 85.5-4.6 3.9-9 1.8-7-3.3 6.9-16.9 22-54.7 14.8-63.9z"></path>
<path d="M353.7 378.8l0.1 0.1c12.4-10.9 34.7-30.4 47.3-40.9 5-4 4.1-10.7 0.2-16.3-11.3-15.6-23.3-28.3-23.3-57.1v-96c0-40.7 2.8-78-27.1-106-23.6-22.6-62.8-30.6-92.8-30.6-58.6 0-124 21.9-137.7 94.3-1.5 7.7 4.2 11.8 9.2 12.9l59.7 6.5c5.6-0.3 9.6-5.8 10.7-11.4 5.1-24.9 26-37 49.5-37 12.7 0 27.1 4.6 34.6 16 8.6 12.7 7.5 30 7.5 44.7v8c-35.7 4-82.4 6.6-115.8 21.3-38.6 16.7-65.7 50.7-65.7 100.7 0 64 40.3 96 92.2 96 43.8 0 67.7-10.3 101.5-44.9 11.2 16.2 14.8 24.1 35.3 41.1 4.7 2.5 10.5 2.3 14.6-1.4zM291.6 228.6c0 24 0.6 44-11.5 65.3-9.8 17.4-25.3 28-42.6 28-23.6 0-37.4-18-37.4-44.6 0-52.5 47.1-62 91.6-62v13.3z"></path>
</svg>
